<svg width="140" height="31" viewBox="0 0 140 31" fill="none" xmlns="http://www.w3.org/2000/svg">
<path d="M50.658 24.288C48.962 24.288 47.506 23.928 46.29 23.208C45.074 22.472 44.138 21.456 43.482 20.16C42.826 18.848 42.498 17.336 42.498 15.624C42.498 13.912 42.826 12.4 43.482 11.088C44.138 9.776 45.074 8.752 46.29 8.016C47.506 7.28 48.962 6.912 50.658 6.912C52.674 6.912 54.322 7.416 55.602 8.424C56.898 9.416 57.706 10.816 58.026 12.624H54.642C54.434 11.712 53.986 11 53.298 10.488C52.626 9.96 51.73 9.696 50.61 9.696C49.058 9.696 47.842 10.224 46.962 11.28C46.082 12.336 45.642 13.784 45.642 15.624C45.642 17.464 46.082 18.912 46.962 19.968C47.842 21.008 49.058 21.528 50.61 21.528C51.73 21.528 52.626 21.288 53.298 20.808C53.986 20.312 54.434 19.632 54.642 18.768H58.026C57.706 20.496 56.898 21.848 55.602 22.824C54.322 23.8 52.674 24.288 50.658 24.288ZM66.3853 24.288C65.2333 24.288 64.1933 24.024 63.2653 23.496C62.3533 22.968 61.6253 22.24 61.0813 21.312C60.5533 20.368 60.2893 19.28 60.2893 18.048C60.2893 16.816 60.5613 15.736 61.1053 14.808C61.6493 13.864 62.3773 13.128 63.2893 12.6C64.2173 12.072 65.2573 11.808 66.4093 11.808C67.5453 11.808 68.5693 12.072 69.4813 12.6C70.4093 13.128 71.1373 13.864 71.6653 14.808C72.2093 15.736 72.4813 16.816 72.4813 18.048C72.4813 19.28 72.2093 20.368 71.6653 21.312C71.1373 22.24 70.4093 22.968 69.4813 23.496C68.5533 24.024 67.5213 24.288 66.3853 24.288ZM66.3853 21.624C67.1853 21.624 67.8813 21.328 68.4733 20.736C69.0653 20.128 69.3613 19.232 69.3613 18.048C69.3613 16.864 69.0653 15.976 68.4733 15.384C67.8813 14.776 67.1933 14.472 66.4093 14.472C65.5933 14.472 64.8893 14.776 64.2973 15.384C63.7213 15.976 63.4333 16.864 63.4333 18.048C63.4333 19.232 63.7213 20.128 64.2973 20.736C64.8893 21.328 65.5853 21.624 66.3853 21.624ZM75.228 24V6.72H78.3V24H75.228ZM81.4389 24V6.72H84.5109V24H81.4389ZM93.3618 24.288C92.2098 24.288 91.1698 24.024 90.2418 23.496C89.3298 22.968 88.6018 22.24 88.0578 21.312C87.5298 20.368 87.2658 19.28 87.2658 18.048C87.2658 16.816 87.5378 15.736 88.0818 14.808C88.6258 13.864 89.3538 13.128 90.2658 12.6C91.1938 12.072 92.2338 11.808 93.3858 11.808C94.5218 11.808 95.5458 12.072 96.4578 12.6C97.3858 13.128 98.1138 13.864 98.6418 14.808C99.1858 15.736 99.4578 16.816 99.4578 18.048C99.4578 19.28 99.1858 20.368 98.6418 21.312C98.1138 22.24 97.3858 22.968 96.4578 23.496C95.5298 24.024 94.4978 24.288 93.3618 24.288ZM93.3618 21.624C94.1618 21.624 94.8578 21.328 95.4498 20.736C96.0418 20.128 96.3378 19.232 96.3378 18.048C96.3378 16.864 96.0418 15.976 95.4498 15.384C94.8578 14.776 94.1698 14.472 93.3858 14.472C92.5698 14.472 91.8658 14.776 91.2738 15.384C90.6978 15.976 90.4098 16.864 90.4098 18.048C90.4098 19.232 90.6978 20.128 91.2738 20.736C91.8658 21.328 92.5618 21.624 93.3618 21.624ZM107.125 24.288C106.069 24.288 105.141 24.12 104.341 23.784C103.541 23.432 102.901 22.952 102.421 22.344C101.941 21.736 101.653 21.032 101.557 20.232H104.653C104.749 20.696 105.005 21.096 105.421 21.432C105.853 21.752 106.405 21.912 107.077 21.912C107.749 21.912 108.237 21.776 108.541 21.504C108.861 21.232 109.021 20.92 109.021 20.568C109.021 20.056 108.797 19.712 108.349 19.536C107.901 19.344 107.277 19.16 106.477 18.984C105.965 18.872 105.445 18.736 104.917 18.576C104.389 18.416 103.901 18.216 103.453 17.976C103.021 17.72 102.669 17.4 102.397 17.016C102.125 16.616 101.989 16.128 101.989 15.552C101.989 14.496 102.405 13.608 103.237 12.888C104.085 12.168 105.269 11.808 106.789 11.808C108.197 11.808 109.317 12.136 110.149 12.792C110.997 13.448 111.501 14.352 111.661 15.504H108.757C108.581 14.624 107.917 14.184 106.765 14.184C106.189 14.184 105.741 14.296 105.421 14.52C105.117 14.744 104.965 15.024 104.965 15.36C104.965 15.712 105.197 15.992 105.661 16.2C106.125 16.408 106.741 16.6 107.509 16.776C108.341 16.968 109.101 17.184 109.789 17.424C110.493 17.648 111.053 17.992 111.469 18.456C111.885 18.904 112.093 19.552 112.093 20.4C112.109 21.136 111.917 21.8 111.517 22.392C111.117 22.984 110.541 23.448 109.789 23.784C109.037 24.12 108.149 24.288 107.125 24.288ZM118.918 24.288C117.894 24.288 117.054 24.128 116.398 23.808C115.742 23.472 115.254 23.032 114.934 22.488C114.614 21.944 114.454 21.344 114.454 20.688C114.454 19.584 114.886 18.688 115.75 18C116.614 17.312 117.91 16.968 119.638 16.968H122.662V16.68C122.662 15.864 122.43 15.264 121.966 14.88C121.502 14.496 120.926 14.304 120.238 14.304C119.614 14.304 119.07 14.456 118.606 14.76C118.142 15.048 117.854 15.48 117.742 16.056H114.742C114.822 15.192 115.11 14.44 115.606 13.8C116.118 13.16 116.774 12.672 117.574 12.336C118.374 11.984 119.27 11.808 120.262 11.808C121.958 11.808 123.294 12.232 124.27 13.08C125.246 13.928 125.734 15.128 125.734 16.68V24H123.118L122.83 22.08C122.478 22.72 121.982 23.248 121.342 23.664C120.718 24.08 119.91 24.288 118.918 24.288ZM119.614 21.888C120.494 21.888 121.174 21.6 121.654 21.024C122.15 20.448 122.462 19.736 122.59 18.888H119.974C119.158 18.888 118.574 19.04 118.222 19.344C117.87 19.632 117.694 19.992 117.694 20.424C117.694 20.888 117.87 21.248 118.222 21.504C118.574 21.76 119.038 21.888 119.614 21.888ZM128.665 24V6.72H131.737V24H128.665ZM136.196 24.168C135.636 24.168 135.172 23.992 134.804 23.64C134.452 23.288 134.276 22.864 134.276 22.368C134.276 21.856 134.452 21.424 134.804 21.072C135.172 20.72 135.636 20.544 136.196 20.544C136.756 20.544 137.212 20.72 137.564 21.072C137.932 21.424 138.116 21.856 138.116 22.368C138.116 22.864 137.932 23.288 137.564 23.64C137.212 23.992 136.756 24.168 136.196 24.168Z" fill="white"/>
<path d="M18.9221 9.77922V7C18.9221 5.89543 18.0266 5 16.9221 5H3C1.89543 5 1 5.89543 1 7V20.9221C1 22.0266 1.89543 22.9221 3 22.9221H6.22727" stroke="white" stroke-width="2"/>
<rect x="7.07812" y="10.4805" width="15.9221" height="15.9221" rx="1" stroke="white" stroke-width="2"/>
</svg>
