<svg width="142" height="31" viewBox="0 0 142 31" fill="none" xmlns="http://www.w3.org/2000/svg">
<path d="M53.408 24.288C51.712 24.288 50.256 23.928 49.04 23.208C47.824 22.472 46.888 21.456 46.232 20.16C45.576 18.848 45.248 17.336 45.248 15.624C45.248 13.912 45.576 12.4 46.232 11.088C46.888 9.776 47.824 8.752 49.04 8.016C50.256 7.28 51.712 6.912 53.408 6.912C55.424 6.912 57.072 7.416 58.352 8.424C59.648 9.416 60.456 10.816 60.776 12.624H57.392C57.184 11.712 56.736 11 56.048 10.488C55.376 9.96 54.48 9.696 53.36 9.696C51.808 9.696 50.592 10.224 49.712 11.28C48.832 12.336 48.392 13.784 48.392 15.624C48.392 17.464 48.832 18.912 49.712 19.968C50.592 21.008 51.808 21.528 53.36 21.528C54.48 21.528 55.376 21.288 56.048 20.808C56.736 20.312 57.184 19.632 57.392 18.768H60.776C60.456 20.496 59.648 21.848 58.352 22.824C57.072 23.8 55.424 24.288 53.408 24.288ZM69.1353 24.288C67.9833 24.288 66.9433 24.024 66.0153 23.496C65.1033 22.968 64.3753 22.24 63.8313 21.312C63.3033 20.368 63.0393 19.28 63.0393 18.048C63.0393 16.816 63.3113 15.736 63.8553 14.808C64.3993 13.864 65.1273 13.128 66.0393 12.6C66.9673 12.072 68.0073 11.808 69.1593 11.808C70.2953 11.808 71.3193 12.072 72.2313 12.6C73.1593 13.128 73.8873 13.864 74.4153 14.808C74.9593 15.736 75.2313 16.816 75.2313 18.048C75.2313 19.28 74.9593 20.368 74.4153 21.312C73.8873 22.24 73.1593 22.968 72.2313 23.496C71.3033 24.024 70.2713 24.288 69.1353 24.288ZM69.1353 21.624C69.9353 21.624 70.6313 21.328 71.2233 20.736C71.8153 20.128 72.1113 19.232 72.1113 18.048C72.1113 16.864 71.8153 15.976 71.2233 15.384C70.6313 14.776 69.9433 14.472 69.1593 14.472C68.3433 14.472 67.6393 14.776 67.0473 15.384C66.4713 15.976 66.1833 16.864 66.1833 18.048C66.1833 19.232 66.4713 20.128 67.0473 20.736C67.6393 21.328 68.3353 21.624 69.1353 21.624ZM77.978 24V6.72H81.05V24H77.978ZM84.1889 24V6.72H87.2609V24H84.1889ZM96.1118 24.288C94.9598 24.288 93.9198 24.024 92.9918 23.496C92.0798 22.968 91.3518 22.24 90.8078 21.312C90.2798 20.368 90.0158 19.28 90.0158 18.048C90.0158 16.816 90.2878 15.736 90.8318 14.808C91.3758 13.864 92.1038 13.128 93.0158 12.6C93.9438 12.072 94.9838 11.808 96.1358 11.808C97.2718 11.808 98.2958 12.072 99.2078 12.6C100.136 13.128 100.864 13.864 101.392 14.808C101.936 15.736 102.208 16.816 102.208 18.048C102.208 19.28 101.936 20.368 101.392 21.312C100.864 22.24 100.136 22.968 99.2078 23.496C98.2798 24.024 97.2478 24.288 96.1118 24.288ZM96.1118 21.624C96.9118 21.624 97.6078 21.328 98.1998 20.736C98.7918 20.128 99.0878 19.232 99.0878 18.048C99.0878 16.864 98.7918 15.976 98.1998 15.384C97.6078 14.776 96.9198 14.472 96.1358 14.472C95.3198 14.472 94.6158 14.776 94.0238 15.384C93.4478 15.976 93.1598 16.864 93.1598 18.048C93.1598 19.232 93.4478 20.128 94.0238 20.736C94.6158 21.328 95.3118 21.624 96.1118 21.624ZM109.875 24.288C108.819 24.288 107.891 24.12 107.091 23.784C106.291 23.432 105.651 22.952 105.171 22.344C104.691 21.736 104.403 21.032 104.307 20.232H107.403C107.499 20.696 107.755 21.096 108.171 21.432C108.603 21.752 109.155 21.912 109.827 21.912C110.499 21.912 110.987 21.776 111.291 21.504C111.611 21.232 111.771 20.92 111.771 20.568C111.771 20.056 111.547 19.712 111.099 19.536C110.651 19.344 110.027 19.16 109.227 18.984C108.715 18.872 108.195 18.736 107.667 18.576C107.139 18.416 106.651 18.216 106.203 17.976C105.771 17.72 105.419 17.4 105.147 17.016C104.875 16.616 104.739 16.128 104.739 15.552C104.739 14.496 105.155 13.608 105.987 12.888C106.835 12.168 108.019 11.808 109.539 11.808C110.947 11.808 112.067 12.136 112.899 12.792C113.747 13.448 114.251 14.352 114.411 15.504H111.507C111.331 14.624 110.667 14.184 109.515 14.184C108.939 14.184 108.491 14.296 108.171 14.52C107.867 14.744 107.715 15.024 107.715 15.36C107.715 15.712 107.947 15.992 108.411 16.2C108.875 16.408 109.491 16.6 110.259 16.776C111.091 16.968 111.851 17.184 112.539 17.424C113.243 17.648 113.803 17.992 114.219 18.456C114.635 18.904 114.843 19.552 114.843 20.4C114.859 21.136 114.667 21.8 114.267 22.392C113.867 22.984 113.291 23.448 112.539 23.784C111.787 24.12 110.899 24.288 109.875 24.288ZM121.668 24.288C120.644 24.288 119.804 24.128 119.148 23.808C118.492 23.472 118.004 23.032 117.684 22.488C117.364 21.944 117.204 21.344 117.204 20.688C117.204 19.584 117.636 18.688 118.5 18C119.364 17.312 120.66 16.968 122.388 16.968H125.412V16.68C125.412 15.864 125.18 15.264 124.716 14.88C124.252 14.496 123.676 14.304 122.988 14.304C122.364 14.304 121.82 14.456 121.356 14.76C120.892 15.048 120.604 15.48 120.492 16.056H117.492C117.572 15.192 117.86 14.44 118.356 13.8C118.868 13.16 119.524 12.672 120.324 12.336C121.124 11.984 122.02 11.808 123.012 11.808C124.708 11.808 126.044 12.232 127.02 13.08C127.996 13.928 128.484 15.128 128.484 16.68V24H125.868L125.58 22.08C125.228 22.72 124.732 23.248 124.092 23.664C123.468 24.08 122.66 24.288 121.668 24.288ZM122.364 21.888C123.244 21.888 123.924 21.6 124.404 21.024C124.9 20.448 125.212 19.736 125.34 18.888H122.724C121.908 18.888 121.324 19.04 120.972 19.344C120.62 19.632 120.444 19.992 120.444 20.424C120.444 20.888 120.62 21.248 120.972 21.504C121.324 21.76 121.788 21.888 122.364 21.888ZM131.415 24V6.72H134.487V24H131.415ZM138.946 24.168C138.386 24.168 137.922 23.992 137.554 23.64C137.202 23.288 137.026 22.864 137.026 22.368C137.026 21.856 137.202 21.424 137.554 21.072C137.922 20.72 138.386 20.544 138.946 20.544C139.506 20.544 139.962 20.72 140.314 21.072C140.682 21.424 140.866 21.856 140.866 22.368C140.866 22.864 140.682 23.288 140.314 23.64C139.962 23.992 139.506 24.168 138.946 24.168Z" fill="white"/>
<path d="M23.75 14.75H6.25M23.75 14.75C24.413 14.75 25.0489 15.0134 25.5178 15.4822C25.9866 15.9511 26.25 16.587 26.25 17.25V24.75C26.25 25.413 25.9866 26.0489 25.5178 26.5178C25.0489 26.9866 24.413 27.25 23.75 27.25H6.25C5.58696 27.25 4.95107 26.9866 4.48223 26.5178C4.01339 26.0489 3.75 25.413 3.75 24.75V17.25C3.75 16.587 4.01339 15.9511 4.48223 15.4822C4.95107 15.0134 5.58696 14.75 6.25 14.75M23.75 14.75V12.25C23.75 11.587 23.4866 10.9511 23.0178 10.4822C22.5489 10.0134 21.913 9.75 21.25 9.75M23.75 14.75L21.25 9.75M6.25 14.75V12.25C6.25 11.587 6.51339 10.9511 6.98223 10.4822C7.45107 10.0134 8.08696 9.75 8.75 9.75M6.25 14.75L8.75 9.75M21.25 9.75V7.25C21.25 6.58696 20.9866 5.95107 20.5178 5.48223C20.0489 5.01339 19.413 4.75 18.75 4.75H11.25C10.587 4.75 9.95107 5.01339 9.48223 5.48223C9.01339 5.95107 8.75 6.58696 8.75 7.25V9.75M21.25 9.75H8.75" stroke="white" stroke-width="2" stroke-linecap="round" stroke-linejoin="round"/>
</svg>
